<?xml version="1.0" encoding="utf-8"?>
<!-- Generator: Adobe Illustrator 19.0.0, SVG Export Plug-In . SVG Version: 6.00 Build 0)  -->
<svg version="1.1" id="Layer_1" xmlns="http://www.w3.org/2000/svg" xmlns:xlink="http://www.w3.org/1999/xlink" x="0px" y="0px"
	 viewBox="0 0 223 178" style="enable-background:new 0 0 223 178;" xml:space="preserve">
<style type="text/css">
	.Drop_x0020_Shadow{fill:none;}
	.Outer_x0020_Glow_x0020_5_x0020_pt{fill:none;}
	.Blue_x0020_Neon{fill:none;stroke:#8AACDA;stroke-width:7;stroke-linecap:round;stroke-linejoin:round;}
	.Chrome_x0020_Highlight{fill:url(#SVGID_1_);stroke:#FFFFFF;stroke-width:0.3629;stroke-miterlimit:1;}
	.Jive_GS{fill:#FFDD00;}
	.Alyssa_GS{fill:#A6D0E4;}
	.st0{fill-rule:evenodd;clip-rule:evenodd;fill:#E0B872;}
	.st1{fill-rule:evenodd;clip-rule:evenodd;fill:#630D0D;}
	.st2{fill:#630D0D;}
	.st3{fill:#E0B872;}
	.st4{fill-rule:evenodd;clip-rule:evenodd;fill:#FFFFFF;stroke:#E1B972;stroke-width:1.086;stroke-miterlimit:10;}
	.st5{fill:none;stroke:#E1B972;stroke-width:2.0576;stroke-miterlimit:10;}
</style>
<linearGradient id="SVGID_1_" gradientUnits="userSpaceOnUse" x1="-368.5" y1="-191" x2="-368.5" y2="-192">
	<stop  offset="0" style="stop-color:#656565"/>
	<stop  offset="0.618" style="stop-color:#1B1B1B"/>
	<stop  offset="0.6292" style="stop-color:#545454"/>
	<stop  offset="0.9831" style="stop-color:#3E3E3E"/>
</linearGradient>
<g id="XMLID_1_">
	<rect id="XMLID_2_" x="26.5" y="173.9" class="st0" width="170.8" height="1.8"/>
	<rect id="XMLID_3_" x="26.5" y="173.9" class="st1" width="23.5" height="1.8"/>
	<path id="XMLID_4_" class="st2" d="M212.2,124v-4.1h-1.6v-0.6h3.7v0.6h-1.6v4.1H212.2z M215,124v-4.7h0.9l1.1,3.3
		c0.1,0.3,0.2,0.5,0.2,0.7c0.1-0.2,0.1-0.4,0.3-0.7l1.1-3.3h0.8v4.7h-0.6V120l-1.4,3.9H217l-1.3-4v4H215z"/>
	<path id="XMLID_7_" class="st3" d="M30.4,145.1h-7l-8.9-12.3c-0.7,0-1.2,0-1.6,0c-0.2,0-0.3,0-0.5,0c-0.2,0-0.4,0-0.6,0v7.6
		c0,1.7,0.2,2.7,0.5,3.1c0.5,0.6,1.2,0.9,2.2,0.9h1v0.7H4.2v-0.7h1c1.1,0,1.9-0.4,2.4-1.1c0.3-0.4,0.4-1.4,0.4-2.9v-17
		c0-1.7-0.2-2.7-0.5-3.1c-0.5-0.6-1.3-0.9-2.2-0.9h-1v-0.7h9.6c2.8,0,4.9,0.2,6.2,0.6c1.3,0.4,2.5,1.1,3.4,2.2
		c0.9,1.1,1.4,2.4,1.4,3.9c0,1.6-0.5,3-1.6,4.2c-1.1,1.2-2.7,2-4.9,2.5l5.4,7.5c1.3,1.7,2.3,2.9,3.2,3.5c0.9,0.5,2.1,0.9,3.5,1.1
		V145.1z M11.7,131.6c0.3,0,0.5,0,0.6,0c0.2,0,0.3,0,0.5,0c2.5,0,4.4-0.5,5.7-1.6c1.3-1.1,1.9-2.5,1.9-4.1c0-1.6-0.5-3-1.5-4
		c-1-1-2.4-1.5-4.1-1.5c-0.7,0-1.7,0.1-3,0.4V131.6z M40.7,144.4v0.7H29.4v-0.7h0.9c1.1,0,1.9-0.3,2.4-1c0.3-0.4,0.5-1.4,0.5-3v-17
		c0-1.3-0.1-2.2-0.3-2.6c-0.1-0.3-0.4-0.6-0.8-0.8c-0.6-0.3-1.2-0.5-1.8-0.5h-0.9v-0.7h11.3v0.7h-0.9c-1.1,0-1.9,0.3-2.3,0.9
		c-0.3,0.4-0.5,1.4-0.5,3v17c0,1.3,0.1,2.2,0.3,2.6c0.1,0.3,0.4,0.6,0.8,0.8c0.6,0.3,1.1,0.5,1.8,0.5H40.7z M64,118.3l0.6,8.9H64
		c-0.8-2.7-1.9-4.6-3.4-5.8c-1.5-1.2-3.3-1.8-5.4-1.8c-1.7,0-3.3,0.5-4.7,1.3c-1.4,0.9-2.5,2.3-3.3,4.2c-0.8,1.9-1.2,4.3-1.2,7.2
		c0,2.4,0.4,4.5,1.1,6.2s1.9,3.1,3.5,4c1.5,0.9,3.3,1.4,5.2,1.4c1.7,0,3.2-0.4,4.5-1.1c1.3-0.7,2.7-2.2,4.3-4.4l0.6,0.4
		c-1.3,2.3-2.9,4.1-4.6,5.1c-1.8,1.1-3.9,1.6-6.3,1.6c-4.3,0-7.7-1.6-10.1-4.9c-1.8-2.4-2.7-5.2-2.7-8.5c0-2.6,0.6-5,1.8-7.2
		c1.2-2.2,2.8-3.9,4.9-5.1c2.1-1.2,4.3-1.8,6.8-1.8c1.9,0,3.8,0.5,5.6,1.4c0.5,0.3,0.9,0.4,1.2,0.4c0.3,0,0.7-0.1,0.9-0.4
		c0.3-0.3,0.6-0.8,0.7-1.4H64z M73.1,131h12.2v-7.5c0-1.3-0.1-2.2-0.2-2.7c-0.1-0.3-0.4-0.6-0.8-0.8c-0.5-0.3-1.1-0.5-1.8-0.5h-0.9
		v-0.7h11.2v0.7h-0.9c-0.6,0-1.2,0.1-1.8,0.4c-0.4,0.2-0.7,0.5-0.9,0.9c-0.1,0.4-0.2,1.3-0.2,2.6v17c0,1.3,0.1,2.2,0.3,2.6
		c0.1,0.3,0.4,0.6,0.8,0.8c0.6,0.3,1.2,0.5,1.8,0.5h0.9v0.7H81.6v-0.7h0.9c1.1,0,1.9-0.3,2.4-1c0.3-0.4,0.5-1.4,0.5-3v-8H73.1v8
		c0,1.3,0.1,2.2,0.3,2.6c0.1,0.3,0.4,0.6,0.8,0.8c0.6,0.3,1.1,0.5,1.8,0.5h0.9v0.7H65.7v-0.7h0.9c1.1,0,1.9-0.3,2.4-1
		c0.3-0.4,0.5-1.4,0.5-3v-17c0-1.3-0.1-2.2-0.3-2.7c-0.1-0.3-0.4-0.6-0.8-0.8c-0.6-0.3-1.2-0.5-1.8-0.5h-0.9v-0.7h11.3v0.7H76
		c-0.6,0-1.2,0.1-1.8,0.4c-0.4,0.2-0.7,0.5-0.8,0.9c-0.1,0.4-0.2,1.3-0.2,2.6V131z M108.3,145.1L98.1,123v17.6c0,1.6,0.2,2.6,0.5,3
		c0.5,0.5,1.3,0.8,2.3,0.8h0.9v0.7h-9.1v-0.7h0.9c1.1,0,1.9-0.3,2.4-1c0.3-0.4,0.4-1.3,0.4-2.8v-17.2c0-1.2-0.1-2-0.4-2.5
		c-0.2-0.4-0.5-0.7-1-0.9c-0.5-0.3-1.3-0.4-2.3-0.4v-0.7h7.5l9.5,20.6l9.4-20.6h7.5v0.7h-0.9c-1.1,0-1.9,0.3-2.4,1
		c-0.3,0.4-0.4,1.3-0.4,2.8v17.2c0,1.6,0.2,2.6,0.5,3c0.5,0.5,1.2,0.8,2.3,0.8h0.9v0.7h-11.2v-0.7h0.9c1.1,0,1.9-0.3,2.4-1
		c0.3-0.4,0.4-1.3,0.4-2.8V123L109,145.1H108.3z M140.3,118.3c3.4,0,6.4,1.3,8.9,3.9c2.5,2.6,3.7,5.8,3.7,9.7c0,4-1.3,7.3-3.8,9.9
		c-2.5,2.7-5.6,4-9.1,4c-3.6,0-6.7-1.3-9.1-3.9c-2.5-2.6-3.7-5.9-3.7-10c0-4.2,1.4-7.6,4.3-10.2
		C133.9,119.4,136.9,118.3,140.3,118.3L140.3,118.3z M139.9,119.7c-2.3,0-4.2,0.9-5.7,2.6c-1.8,2.2-2.7,5.3-2.7,9.5
		c0,4.3,0.9,7.6,2.7,9.9c1.4,1.8,3.3,2.7,5.6,2.7c2.5,0,4.5-1,6.1-2.9c1.6-1.9,2.4-4.9,2.4-9.1c0-4.5-0.9-7.8-2.7-10.1
		C144.4,120.5,142.4,119.7,139.9,119.7L139.9,119.7z M152.3,118.8h7.1l16.1,19.7v-15.2c0-1.6-0.2-2.6-0.5-3
		c-0.5-0.5-1.3-0.8-2.3-0.8h-0.9v-0.7h9.2v0.7h-0.9c-1.1,0-1.9,0.3-2.4,1c-0.3,0.4-0.4,1.3-0.4,2.8v22.2h-0.7l-17.3-21.2v16.2
		c0,1.6,0.2,2.6,0.5,3c0.5,0.5,1.3,0.8,2.3,0.8h0.9v0.7h-9.1v-0.7h0.9c1.1,0,1.9-0.3,2.4-1c0.3-0.4,0.4-1.3,0.4-2.8v-18.3
		c-0.7-0.9-1.3-1.5-1.7-1.8c-0.4-0.3-1-0.5-1.7-0.8c-0.4-0.1-0.9-0.2-1.7-0.2V118.8z M180.6,145.1v-0.7h1c1.1,0,1.9-0.4,2.3-1.1
		c0.3-0.4,0.4-1.4,0.4-2.9v-17c0-1.6-0.2-2.7-0.5-3.1c-0.5-0.6-1.3-0.9-2.2-0.9h-1v-0.7h10.7c3.9,0,6.9,0.5,9,1.3
		c2,0.9,3.7,2.4,4.9,4.5c1.2,2.1,1.9,4.5,1.9,7.2c0,3.7-1.1,6.7-3.3,9.2c-2.5,2.7-6.3,4.1-11.4,4.1H180.6z M188.1,143.2
		c1.6,0.4,3,0.5,4.1,0.5c3,0,5.5-1.1,7.5-3.1c2-2.1,3-5,3-8.6c0-3.6-1-6.5-3-8.6c-2-2.1-4.5-3.1-7.6-3.1c-1.2,0-2.5,0.2-4,0.6V143.2
		z"/>
	<path id="XMLID_19_" class="st2" d="M75.5,40c0.9,0.1,1.7,0.1,2.5,0.3c0.9,0.1,1.6,0.3,2.2,0.4c1.2,0.2,2.1,0.7,2.6,1.5
		c0.5,0.8,0.7,1.9,0.8,3.2c0,0.8,0.1,2,0.1,3.5c0,1.5,0.1,3.2,0.1,5.1c0,1.9,0,3.8,0,5.8c0,2,0,3.9,0,5.7c0,1.9,0,3.4,0,4.8
		c0,1,0,2.1,0,3.5c0,1.4,0,2.9,0,4.5c0,1.6,0,3.3-0.1,4.9c0,1.6,0,3.2,0,4.7c0,1.5,0,2.7-0.1,3.8c0,1.1,0,1.9,0,2.4
		c-0.1,1.3-0.2,2.3-0.4,3.1c-0.2,0.8-0.5,1.4-1,1.8c-0.5,0.4-1.1,0.7-1.9,0.9c-0.5,0.1-1.2,0.3-2,0.4c-0.8,0.1-1.7,0.3-2.8,0.4
		c-0.1,0.1-0.2,0.2-0.3,0.4c-0.1,0.2-0.1,0.5,0,0.7c0.1,0.3,0.1,0.4,0.3,0.4c0.7,0,2-0.1,3.9-0.1c1.9-0.1,4.6-0.1,8.1-0.2
		c1.7,0,3.4,0.1,5.1,0.1c1.7,0.1,3.1,0.1,4.4,0.1c1.3,0.1,2.2,0.1,2.8,0.1c0.1-0.1,0.2-0.3,0.2-0.5c0.1-0.2,0.1-0.4,0-0.7
		c0-0.2-0.1-0.4-0.2-0.5c-1-0.1-2-0.3-2.8-0.4s-1.7-0.3-2.5-0.5c-0.7-0.2-1.2-0.4-1.6-0.7c-0.4-0.3-0.7-0.9-0.9-1.6
		c-0.2-0.7-0.3-1.8-0.3-3.3c-0.1-1.1-0.1-2.5-0.1-4.1s-0.1-3.5-0.1-5.4c0-1.9,0-3.9,0-5.7c0-1.9,0-3.6,0-5c0-0.1,0.1-0.3,0.1-0.4
		c0.3-0.4,1.3-0.3,1.7-0.3c5.1-0.2,7.4,1.1,10.3,5.7c1,1.5,2,3.2,3.1,4.9c1.1,1.7,2.2,3.4,3.3,5.1c1.1,1.7,2.1,3.2,3.1,4.6
		c1,1.4,1.9,2.6,2.7,3.4c0.8,0.9,1.6,1.7,2.4,2.4c0.8,0.6,1.6,1.1,2.4,1.5c0.9,0.4,1.9,0.7,3.2,0.9c1.3,0.3,2.7,0.4,4.1,0.5
		c1.5,0.1,2.9,0.2,4.3,0.2c1.3,0,2.6,0,3.6-0.1c0.1-0.1,0.1-0.2,0.2-0.4c0.1-0.2,0.1-0.5,0.1-0.7c0-0.2,0-0.4,0-0.5
		c-1.2-0.1-2.2-0.2-3.1-0.4c-0.9-0.2-1.7-0.4-2.4-0.8c-0.8-0.3-1.6-0.9-2.5-1.6c-0.9-0.7-1.9-1.6-3-2.8c-1-1-2.1-2.3-3.4-3.8
		c-1.3-1.5-2.5-3.3-3.9-5.1c-1.3-1.9-2.7-3.7-3.9-5.6c-1.3-1.9-2.5-3.7-3.5-5.3c-1.1-1.7-2-3.1-2.7-4.3c-0.1-0.1-0.1-0.2-0.1-0.3
		c0-0.1,0.1-0.2,0.2-0.3c1.5-0.6,3-1.4,4.4-2.3c1.4-1,2.7-2.1,3.9-3.4c1.1-1.3,2-2.9,2.7-4.6c0.7-1.7,1-3.7,1-5.9
		c0-2.2-0.4-4.3-1.1-6.1c-0.7-1.9-1.8-3.5-3.3-4.9c-1.5-1.4-3.3-2.5-5.5-3.3c-2.2-0.8-4.8-1.2-7.7-1.2c-1.6,0-3.3,0-4.9,0.1
		c-1.7,0-3.4,0.1-5.2,0.1c-1.8,0-3.8,0-5.9,0c-0.7,0-1.6,0-2.5,0c-0.9-0.1-1.9-0.1-3-0.1c-1,0-2-0.1-2.9-0.1c-0.9,0-1.7-0.1-2.3-0.1
		c-0.1,0.1-0.1,0.2-0.2,0.4c0,0.2-0.1,0.5,0,0.7C75.4,39.7,75.4,39.9,75.5,40L75.5,40z M95.6,40.9c3.6,0,6.7,0.6,9.1,1.9
		c2.4,1.2,4.2,3,5.4,5.3c1.2,2.3,1.8,5.1,1.8,8.3c0,2.1-0.3,3.9-0.7,5.5c-0.5,1.5-1.1,2.8-1.8,3.8c-0.7,1.1-1.5,1.9-2.4,2.5
		c-0.9,0.6-1.7,1.1-2.5,1.4c-0.7,0.3-1.5,0.5-2.5,0.5c-1,0.1-2.1,0.2-3.3,0.2c-1.2,0-2.3,0-3.5-0.1c-1.2-0.1-2.2-0.1-3.2-0.3
		c-0.1,0-0.1-0.1-0.2-0.2c-0.1-0.1-0.2-0.2-0.2-0.3c0-2,0-4.1,0-6.3c0-2.2,0-4.4,0-6.6c0-2.2,0.1-4.2,0.1-6.1c0-1.9,0.1-3.5,0.1-4.9
		c0-1.3,0.1-2.4,0.2-3c0-0.2,0-0.5,0.1-0.7c0.1-0.3,0.2-0.4,0.4-0.5c0.4-0.1,0.9-0.3,1.5-0.3C94.6,40.9,95.1,40.9,95.6,40.9
		L95.6,40.9z"/>
	<path id="XMLID_22_" class="st0" d="M72.6,31.5h46.1v3H72.6V31.5z M72.4,27.3l-2.2-5.9c-0.4,0.3-0.8,0.4-1.3,0.4
		c-1.1,0-2.1-0.9-2.1-2.1s0.9-2.1,2.1-2.1c1.1,0,2.1,0.9,2.1,2.1c0,0.3-0.1,0.6-0.2,0.9c5.5,2.4,10.4,3,11.6-5.5
		c-0.2,0-0.3,0.1-0.5,0.1c-1.1,0-2.1-0.9-2.1-2.1s0.9-2.1,2.1-2.1c1.1,0,2.1,0.9,2.1,2.1c0,0.7-0.3,1.3-0.9,1.7
		c6.3,4.7,9.7,0.7,12.3-5.9c-1.1-0.1-1.9-1-1.9-2.1c0-1.1,0.9-2.1,2.1-2.1c1.1,0,2.1,0.9,2.1,2.1c0,1-0.7,1.8-1.6,2
		c2.4,8.1,6.5,10.1,12.4,6.1c-0.7-0.3-1.1-1-1.1-1.8c0-1.1,0.9-2.1,2.1-2.1c1.1,0,2.1,0.9,2.1,2.1s-0.9,2.1-2.1,2.1
		c-0.2,0-0.3,0-0.5-0.1c0.3,7,4.6,8.1,10.8,6.3c-0.5-0.4-0.9-1-0.9-1.7c0-1.1,0.9-2.1,2.1-2.1c1.1,0,2.1,0.9,2.1,2.1
		s-0.9,2.1-2.1,2.1c-0.2,0-0.4,0-0.6-0.1l-1.5,5.3C103.4,27.1,87.9,27.2,72.4,27.3L72.4,27.3z M74.3,27.8c0.8,0,1.4,0.7,1.4,1.4
		c0,0.8-0.6,1.4-1.4,1.4c-0.8,0-1.4-0.6-1.4-1.4C72.9,28.5,73.6,27.8,74.3,27.8L74.3,27.8z M77.9,27.8c0.8,0,1.4,0.7,1.4,1.4
		c0,0.8-0.6,1.4-1.4,1.4c-0.8,0-1.4-0.6-1.4-1.4C76.5,28.5,77.1,27.8,77.9,27.8L77.9,27.8z M81.5,27.8c0.8,0,1.4,0.7,1.4,1.4
		c0,0.8-0.6,1.4-1.4,1.4c-0.8,0-1.4-0.6-1.4-1.4C80.1,28.5,80.7,27.8,81.5,27.8L81.5,27.8z M85.1,27.8c0.8,0,1.4,0.7,1.4,1.4
		c0,0.8-0.6,1.4-1.4,1.4s-1.4-0.6-1.4-1.4C83.7,28.5,84.3,27.8,85.1,27.8L85.1,27.8z M88.7,27.8c0.8,0,1.4,0.7,1.4,1.4
		c0,0.8-0.6,1.4-1.4,1.4c-0.8,0-1.4-0.6-1.4-1.4C87.3,28.5,87.9,27.8,88.7,27.8L88.7,27.8z M92.3,27.8c0.8,0,1.4,0.7,1.4,1.4
		c0,0.8-0.6,1.4-1.4,1.4c-0.8,0-1.4-0.6-1.4-1.4C90.8,28.5,91.5,27.8,92.3,27.8L92.3,27.8z M95.8,27.8c0.8,0,1.4,0.7,1.4,1.4
		c0,0.8-0.7,1.4-1.4,1.4s-1.4-0.6-1.4-1.4C94.4,28.5,95.1,27.8,95.8,27.8L95.8,27.8z M99.4,27.8c0.8,0,1.4,0.7,1.4,1.4
		c0,0.8-0.6,1.4-1.4,1.4c-0.8,0-1.4-0.6-1.4-1.4C98,28.5,98.6,27.8,99.4,27.8L99.4,27.8z M103,27.8c0.8,0,1.4,0.7,1.4,1.4
		c0,0.8-0.6,1.4-1.4,1.4c-0.8,0-1.4-0.6-1.4-1.4C101.6,28.5,102.2,27.8,103,27.8L103,27.8z M106.6,27.8c0.8,0,1.4,0.7,1.4,1.4
		c0,0.8-0.6,1.4-1.4,1.4c-0.8,0-1.4-0.6-1.4-1.4C105.2,28.5,105.8,27.8,106.6,27.8L106.6,27.8z M110.2,27.8c0.8,0,1.4,0.7,1.4,1.4
		c0,0.8-0.6,1.4-1.4,1.4c-0.8,0-1.4-0.6-1.4-1.4C108.8,28.5,109.4,27.8,110.2,27.8L110.2,27.8z M113.8,27.8c0.8,0,1.4,0.7,1.4,1.4
		c0,0.8-0.7,1.4-1.4,1.4s-1.4-0.6-1.4-1.4C112.4,28.5,113,27.8,113.8,27.8L113.8,27.8z M117.3,27.8c0.8,0,1.4,0.7,1.4,1.4
		c0,0.8-0.6,1.4-1.4,1.4c-0.8,0-1.4-0.6-1.4-1.4C115.9,28.5,116.6,27.8,117.3,27.8L117.3,27.8z"/>
	<polygon id="XMLID_38_" class="st4" points="97.1,17.8 98.1,18.7 99.1,19.7 99.1,21.1 99.1,22.5 98.1,23.5 97.1,24.4 95.7,24.4 
		94.4,24.4 93.4,23.5 92.4,22.5 92.4,21.1 92.4,19.7 93.4,18.7 94.4,17.8 95.7,17.8 	"/>
	<polygon id="XMLID_39_" class="st4" points="96.5,19.3 97,19.9 97.5,20.4 97.5,21.1 97.5,21.8 97,22.4 96.5,22.9 95.7,22.9 
		95,22.9 94.5,22.4 94,21.8 94,21.1 94,20.4 94.5,19.9 95,19.3 95.7,19.3 	"/>
	<line id="XMLID_40_" class="st5" x1="95" y1="19.4" x2="94.3" y2="17.8"/>
	<line id="XMLID_41_" class="st5" x1="96.5" y1="19.4" x2="97.1" y2="17.8"/>
	<line id="XMLID_42_" class="st5" x1="97.5" y1="20.4" x2="99.1" y2="19.7"/>
	<line id="XMLID_43_" class="st5" x1="97.5" y1="21.9" x2="99.1" y2="22.5"/>
	<line id="XMLID_44_" class="st5" x1="96.5" y1="22.9" x2="97.1" y2="24.4"/>
	<line id="XMLID_45_" class="st5" x1="95" y1="22.9" x2="94.3" y2="24.5"/>
	<line id="XMLID_46_" class="st5" x1="93.9" y1="21.9" x2="92.4" y2="22.5"/>
	<line id="XMLID_47_" class="st5" x1="93.9" y1="20.4" x2="92.4" y2="19.8"/>
	<path id="XMLID_48_" class="st2" d="M72.2,166.1l-1.9-5.7c-0.4,0-0.9-0.1-1.3-0.1l-1,3.6c-0.1,0.5-0.2,0.9-0.2,1.2
		c0,0.3,0.1,0.5,0.3,0.6c0.1,0.1,0.5,0.2,1,0.2l-0.1,0.3h-4.6l0.1-0.3c0.4,0,0.7-0.1,0.9-0.1c0.3-0.1,0.4-0.2,0.5-0.4
		c0.2-0.3,0.4-0.8,0.6-1.5l2.1-7.1c0.1-0.5,0.2-0.8,0.2-1.1c0-0.3-0.1-0.5-0.3-0.7c-0.2-0.2-0.5-0.3-0.9-0.3l0.1-0.3h3.9
		c1.3,0,2.2,0.2,2.8,0.7c0.6,0.5,0.9,1.1,0.9,1.9c0,0.8-0.3,1.5-0.9,2.1c-0.6,0.6-1.4,1-2.4,1.2l1.1,3.5c0.3,0.9,0.6,1.4,0.8,1.7
		c0.3,0.3,0.7,0.4,1.4,0.4l-0.1,0.3H72.2z M69.1,159.7c0.4,0.1,0.7,0.1,1,0.1c1,0,1.8-0.3,2.4-0.9c0.6-0.5,0.9-1.2,0.9-2.1
		c0-0.7-0.2-1.1-0.5-1.5c-0.4-0.3-0.9-0.5-1.6-0.5c-0.2,0-0.4,0-0.7,0.1L69.1,159.7z M80.2,162.8c-0.1,0.3-0.1,0.5-0.1,0.7
		c0,0.5,0.2,1,0.5,1.3c0.4,0.4,0.8,0.5,1.3,0.5c0.4,0,0.8-0.1,1.2-0.3c0.4-0.2,1-0.5,1.7-1.1l0.2,0.2c-1.4,1.4-2.7,2.1-3.9,2.1
		c-0.9,0-1.5-0.3-1.9-0.8c-0.4-0.5-0.7-1.1-0.7-1.8c0-0.9,0.3-1.7,0.8-2.7s1.2-1.6,2-2.1c0.8-0.5,1.6-0.8,2.5-0.8
		c0.6,0,1.1,0.1,1.4,0.4c0.3,0.2,0.4,0.5,0.4,0.9c0,0.5-0.2,0.9-0.6,1.4c-0.5,0.6-1.3,1.1-2.2,1.4C82.3,162.5,81.4,162.7,80.2,162.8
		L80.2,162.8z M80.3,162.4c0.9-0.1,1.6-0.3,2.1-0.5c0.7-0.3,1.3-0.7,1.6-1.1c0.3-0.5,0.5-0.9,0.5-1.3c0-0.2-0.1-0.4-0.3-0.6
		c-0.1-0.1-0.4-0.2-0.7-0.2c-0.6,0-1.2,0.3-1.9,0.9C81.1,160.2,80.6,161.1,80.3,162.4L80.3,162.4z M96.8,158.2l-1.7,5.9l-0.2,0.8
		c0,0.1,0,0.1,0,0.2c0,0.1,0,0.2,0.1,0.3c0.1,0,0.1,0.1,0.2,0.1c0.1,0,0.2,0,0.3-0.1c0.2-0.2,0.5-0.5,0.9-1l0.3,0.2
		c-0.4,0.6-0.8,1.1-1.3,1.4s-0.8,0.5-1.2,0.5c-0.3,0-0.4-0.1-0.6-0.2c-0.1-0.1-0.2-0.3-0.2-0.5c0-0.3,0.1-0.7,0.2-1.1l0.2-0.7
		c-0.8,1-1.5,1.7-2.1,2.1c-0.5,0.3-0.9,0.4-1.4,0.4c-0.4,0-0.8-0.2-1.1-0.5c-0.3-0.4-0.5-0.9-0.5-1.5c0-0.9,0.3-1.9,0.8-2.9
		c0.5-1,1.3-1.8,2.1-2.5c0.7-0.5,1.3-0.7,1.9-0.7c0.3,0,0.7,0.1,0.9,0.3c0.2,0.2,0.4,0.5,0.5,0.9l0.3-1L96.8,158.2z M93.7,158.7
		c-0.4,0-0.8,0.2-1.2,0.5c-0.6,0.5-1.1,1.2-1.6,2.2c-0.5,1-0.7,1.8-0.7,2.6c0,0.4,0.1,0.7,0.3,0.9c0.2,0.2,0.4,0.3,0.7,0.3
		c0.6,0,1.3-0.5,2.1-1.4c1-1.2,1.5-2.5,1.5-3.8c0-0.5-0.1-0.9-0.3-1.1C94.3,158.8,94,158.7,93.7,158.7L93.7,158.7z M105,153.7
		l-3,10.4c-0.1,0.5-0.2,0.8-0.2,0.9c0,0.1,0,0.2,0.1,0.2c0.1,0.1,0.1,0.1,0.2,0.1c0.1,0,0.2-0.1,0.3-0.1c0.3-0.3,0.6-0.6,1-1.1
		l0.3,0.3c-0.5,0.8-1.1,1.3-1.5,1.7c-0.3,0.2-0.7,0.3-1,0.3c-0.2,0-0.4-0.1-0.5-0.2c-0.1-0.1-0.2-0.3-0.2-0.5c0-0.2,0.1-0.7,0.3-1.3
		l2.4-8.2c0.2-0.7,0.3-1,0.3-1.1c0-0.1-0.1-0.3-0.2-0.3s-0.3-0.1-0.5-0.1c-0.1,0-0.3,0-0.6,0.1v-0.3L105,153.7z M111.7,156.1
		l-0.7,2.4h1.4l-0.1,0.5h-1.4l-1.5,5.1c-0.2,0.5-0.3,0.9-0.3,1.1c0,0.1,0,0.2,0.1,0.2c0,0.1,0.1,0.1,0.1,0.1c0.1,0,0.3-0.1,0.6-0.3
		c0.1-0.1,0.5-0.5,0.9-1.1l0.3,0.2c-0.5,0.8-1,1.3-1.5,1.7c-0.3,0.2-0.7,0.3-1,0.3c-0.3,0-0.5-0.1-0.6-0.2c-0.2-0.2-0.3-0.4-0.3-0.6
		c0-0.3,0.1-0.8,0.3-1.4l1.5-5.1h-1.3l0.1-0.3c0.6-0.2,1.2-0.4,1.6-0.8c0.4-0.3,0.9-0.9,1.4-1.8H111.7z M122.7,160.9
		c0,0.9-0.2,1.7-0.7,2.6c-0.5,0.9-1.1,1.5-1.9,2c-0.8,0.5-1.6,0.7-2.4,0.7c-0.8,0-1.4-0.3-1.9-0.8c-0.5-0.5-0.8-1.2-0.8-2
		c0-0.9,0.3-1.7,0.7-2.6c0.5-0.9,1.1-1.5,2-2c0.8-0.5,1.6-0.8,2.4-0.8s1.4,0.3,1.9,0.8C122.4,159.5,122.7,160.1,122.7,160.9
		L122.7,160.9z M121.3,160.3c0-0.5-0.1-0.9-0.4-1.3c-0.3-0.3-0.6-0.4-1-0.4c-0.9,0-1.7,0.6-2.4,1.9c-0.7,1.2-1.1,2.4-1.1,3.7
		c0,0.5,0.1,1,0.4,1.3c0.3,0.3,0.6,0.5,1.1,0.5c0.8,0,1.6-0.6,2.3-1.8C120.9,162.8,121.3,161.6,121.3,160.3L121.3,160.3z
		 M126.7,158.7l3-0.5l-1.2,4.3c1-1.7,1.9-2.9,2.8-3.7c0.5-0.4,0.8-0.6,1.1-0.6c0.2,0,0.3,0.1,0.5,0.2c0.1,0.1,0.1,0.3,0.1,0.5
		c0,0.4-0.1,0.7-0.3,1.1c-0.1,0.3-0.3,0.4-0.6,0.4c-0.1,0-0.3-0.1-0.3-0.1c-0.1-0.1-0.2-0.2-0.2-0.4c0-0.1,0-0.2-0.1-0.2
		c-0.1-0.1-0.1-0.1-0.2-0.1c-0.1,0-0.2,0-0.3,0.1c-0.1,0.1-0.4,0.3-0.7,0.7c-0.5,0.6-1,1.3-1.6,2.2c-0.2,0.4-0.5,0.8-0.6,1.3
		c-0.2,0.7-0.4,1.1-0.4,1.2l-0.3,1.1h-1.3l1.6-5.4c0.2-0.6,0.3-1.1,0.3-1.3c0-0.1,0-0.2-0.1-0.3c-0.1-0.1-0.3-0.1-0.5-0.1
		c-0.1,0-0.3,0-0.7,0.1L126.7,158.7z M141.6,158.2l-0.5,2.7h-0.3c0-0.8-0.2-1.3-0.5-1.7c-0.3-0.4-0.7-0.5-1.1-0.5
		c-0.4,0-0.7,0.1-0.9,0.3c-0.2,0.2-0.3,0.5-0.3,0.7c0,0.2,0,0.4,0.1,0.5c0.1,0.2,0.3,0.4,0.6,0.7c0.7,0.8,1.2,1.5,1.5,1.9
		c0.2,0.4,0.3,0.8,0.3,1.2c0,0.6-0.3,1.1-0.7,1.6c-0.5,0.5-1.1,0.7-1.9,0.7c-0.4,0-0.9-0.1-1.5-0.3c-0.2-0.1-0.3-0.1-0.4-0.1
		c-0.3,0-0.5,0.1-0.6,0.4H135l0.5-2.8h0.3c0,0.9,0.2,1.5,0.5,1.9c0.3,0.4,0.8,0.5,1.4,0.5c0.4,0,0.8-0.1,1-0.4
		c0.3-0.3,0.4-0.5,0.4-0.9c0-0.2-0.1-0.5-0.1-0.7c-0.2-0.3-0.5-0.8-1-1.4c-0.5-0.6-0.9-1.1-1-1.4c-0.1-0.3-0.2-0.6-0.2-0.9
		c0-0.6,0.2-1,0.6-1.4c0.4-0.4,0.9-0.6,1.6-0.6c0.2,0,0.4,0,0.5,0.1c0.1,0,0.3,0.1,0.6,0.2s0.5,0.2,0.6,0.2c0.3,0,0.5-0.1,0.6-0.4
		H141.6z"/>
</g>
</svg>
